<?xml version="1.0" standalone="no"?>
<!DOCTYPE svg PUBLIC "-//W3C//DTD SVG 20010904//EN"
 "http://www.w3.org/TR/2001/REC-SVG-20010904/DTD/svg10.dtd">
<svg version="1.0" xmlns="http://www.w3.org/2000/svg"
 width="1054.000000pt" height="517.000000pt" viewBox="0 0 1054.000000 517.000000"
 preserveAspectRatio="xMidYMid meet">
<metadata>
Created by potrace 1.14, written by Peter Selinger 2001-2017
</metadata>
<g transform="translate(0.000000,517.000000) scale(0.100000,-0.100000)"
fill="#000000" stroke="none">
<path d="M5800 4871 l0 -240 -537 -3 c-525 -4 -540 -4 -618 -27 -169 -48 -321
-128 -441 -233 -34 -29 -310 -316 -614 -638 -303 -322 -582 -614 -618 -650
-74 -72 -190 -138 -282 -161 -42 -11 -143 -14 -414 -14 l-359 0 -19 69 c-87
318 -345 573 -674 668 -68 20 -102 23 -249 23 -149 0 -180 -3 -250 -24 -165
-48 -291 -120 -411 -234 -398 -377 -395 -1016 8 -1392 200 -188 464 -278 744
-253 388 34 729 319 832 694 l19 69 1034 3 c663 2 1062 -1 1112 -8 86 -11 169
-41 250 -90 38 -23 228 -217 672 -687 650 -687 705 -739 865 -822 41 -21 108
-51 148 -65 144 -51 204 -56 723 -56 l479 0 0 -226 c0 -138 4 -224 9 -222 32
11 1150 654 1148 661 -1 4 -261 155 -577 336 l-575 328 -3 -249 -2 -249 -513
3 -512 3 -79 32 c-44 18 -101 47 -128 65 -40 28 -1176 1214 -1186 1240 -2 4
993 8 2212 8 l2216 0 0 -235 c0 -152 4 -235 10 -235 20 0 1141 653 1133 660
-17 15 -1124 650 -1133 650 -6 0 -10 -87 -10 -235 l0 -235 -2930 0 c-1651 0
-2930 4 -2930 9 0 14 1130 1204 1169 1231 20 13 62 37 94 52 115 56 137 58
685 58 l502 0 0 -236 c0 -130 4 -234 9 -232 19 7 1160 662 1158 664 -5 5
-1159 664 -1163 664 -2 0 -4 -108 -4 -239z"/>
</g>
</svg>
